<?xml version="1.0" encoding="UTF-8" standalone="no"?>
<!DOCTYPE svg PUBLIC "-//W3C//DTD SVG 1.1//EN" "http://www.w3.org/Graphics/SVG/1.1/DTD/svg11.dtd">
<svg version="1.1" xmlns="http://www.w3.org/2000/svg" xmlns:xlink="http://www.w3.org/1999/xlink" preserveAspectRatio="xMidYMid meet" viewBox="0 0 1920 1080" width="1920" height="1080"><defs><path d="M0 0L1920 0L1920 1080L0 1080L0 0Z" id="d3sjun1aC1"></path><path d="M962.32 470.59L963.54 473.46L964.8 476.39L966.09 479.36L967.42 482.38L968.79 485.45L970.19 488.58L971.64 491.75L973.12 494.97L974.64 498.24L976.19 501.57L977.79 504.94L979.42 508.37L981.09 511.84L982.79 515.36L984.54 518.94L986.32 522.56L988.13 526.24L989.99 529.96L991.88 533.74L993.82 537.56L995.79 541.44L997.79 545.36L999.84 549.34L1001.92 553.37L1004.04 557.44L1006.19 561.57L1008.39 565.74L1010.62 569.97L1012.89 574.25L1015.19 578.58L1016.75 581.48L1016.33 581.28L1014.91 580.6L1013.51 579.96L1012.14 579.34L1010.79 578.76L1009.47 578.2L1008.17 577.67L1006.9 577.17L1005.66 576.7L1004.44 576.25L1003.24 575.84L1002.08 575.45L1000.93 575.1L999.81 574.77L998.72 574.47L997.65 574.2L999.1 574.96L1000.53 575.75L1001.95 576.55L1003.36 577.38L1004.75 578.23L1006.14 579.11L1007.51 580L1008.88 580.91L1010.23 581.85L1011.57 582.8L1012.89 583.78L1014.21 584.78L1015.51 585.8L1016.81 586.84L1018.09 587.91L1019.36 588.99L1020.62 590.1L1021.86 591.22L1022.13 591.47L1022.34 591.86L1024.8 596.39L1027.29 600.96L1029.82 605.59L1032.39 610.27L1035 615L1031.28 612.43L1027.55 609.99L1023.83 607.69L1020.1 605.51L1016.37 603.47L1012.64 601.56L1008.91 599.78L1005.18 598.13L1001.44 596.62L997.71 595.23L993.97 593.98L990.23 592.86L986.49 591.87L982.75 591.02L979.01 590.29L975.88 589.8L976.11 588.59L976.36 587.05L976.55 585.49L976.69 583.9L976.77 582.27L976.8 580.63L976.77 578.98L976.69 577.36L976.55 575.76L976.36 574.2L976.11 572.67L975.82 571.17L975.48 569.71L975.09 568.29L974.66 566.92L974.18 565.59L973.67 564.31L973.11 563.09L972.51 561.91L971.88 560.8L971.21 559.74L970.5 558.74L969.77 557.81L969 556.95L968.21 556.15L967.39 555.43L966.54 554.78L965.66 554.21L964.77 553.72L963.85 553.32L962.91 553L961.96 552.76L960.99 552.62L960 552.58L959.01 552.62L958.04 552.76L957.09 553L956.15 553.32L955.23 553.72L954.34 554.21L953.46 554.78L952.61 555.43L951.79 556.15L951 556.95L950.23 557.81L949.5 558.74L948.79 559.74L948.12 560.8L947.49 561.91L946.89 563.09L946.33 564.31L945.82 565.59L945.34 566.92L944.91 568.29L944.52 569.71L944.18 571.17L943.89 572.67L943.64 574.2L943.45 575.76L943.31 577.36L943.23 578.98L943.2 580.63L943.23 582.27L943.31 583.9L943.45 585.49L943.64 587.05L943.89 588.59L944.14 589.88L941.51 590.29L937.75 591.02L933.99 591.87L930.23 592.86L926.47 593.98L922.71 595.23L918.94 596.62L915.18 598.13L911.41 599.78L907.64 601.56L903.87 603.47L900.1 605.51L896.33 607.69L892.55 609.99L888.78 612.43L885 615L887.61 610.27L890.18 605.59L892.71 600.96L895.2 596.39L897.66 591.86L900.08 587.38L902.46 582.95L904.81 578.58L907.11 574.25L909.38 569.97L911.61 565.74L913.81 561.57L915.96 557.44L918.08 553.37L920.16 549.34L922.21 545.36L924.21 541.44L926.18 537.56L928.11 533.74L930.01 529.96L931.86 526.24L933.68 522.56L935.46 518.94L937.21 515.36L938.73 512.22L939.54 512.82L940.97 513.85L942.38 514.84L943.78 515.79L945.16 516.7L946.54 517.56L947.9 518.39L949.24 519.17L950.58 519.91L951.89 520.61L953.2 521.27L954.49 521.89L955.77 522.46L957.03 522.99L958.29 523.49L959.52 523.94L960.75 524.35L959.31 523.38L957.9 522.4L956.53 521.41L955.19 520.41L953.88 519.4L952.61 518.37L951.37 517.34L950.16 516.29L948.99 515.24L947.85 514.17L946.74 513.09L945.67 512L944.63 510.9L943.62 509.79L942.65 508.66L941.71 507.53L941.32 507.04L941.25 506.96L942.21 504.94L943.81 501.57L945.36 498.24L946.88 494.97L948.36 491.75L949.81 488.58L951.21 485.45L952.58 482.38L953.91 479.36L955.2 476.39L956.46 473.46L957.68 470.59L958.86 467.77L960 465L961.14 467.77L962.32 470.59Z" id="a1KPy4tS7s"></path></defs><g><g><g><use xlink:href="#d3sjun1aC1" opacity="1" fill="{color3}" fill-opacity="1"></use></g><g><use xlink:href="#a1KPy4tS7s" opacity="1" fill="{color0}" fill-opacity="1"></use></g></g></g></svg>
