<?xml version="1.0" encoding="UTF-8" standalone="no"?>
<!DOCTYPE svg PUBLIC "-//W3C//DTD SVG 1.1//EN" "http://www.w3.org/Graphics/SVG/1.1/DTD/svg11.dtd">
<svg version="1.1" xmlns="http://www.w3.org/2000/svg" xmlns:xlink="http://www.w3.org/1999/xlink" preserveAspectRatio="xMidYMid meet" viewBox="0 0 3840 2160" width="3840" height="2160"><defs><path d="M0 0L3840 0L3840 2160L0 2160L0 0Z" id="ansf1lra"></path><path d="M1927.81 926.89L1929.58 927.07L1931.33 927.33L1933.05 927.66L1934.75 928.05L1936.43 928.52L1938.08 929.05L1939.7 929.64L1941.29 930.3L1942.85 931.02L1944.37 931.8L1945.86 932.63L1947.32 933.53L1948.74 934.48L1950.12 935.48L1951.46 936.54L1952.76 937.65L1954.02 938.81L1955.23 940.02L1956.4 941.27L1957.52 942.57L1958.6 943.91L1959.62 945.3L1960.59 946.72L1961.51 948.19L1962.38 949.7L1963.19 951.24L1963.94 952.81L1964.64 954.42L1965.28 956.06L1965.85 957.74L1966.36 959.44L1966.76 960.97L1966.76 960.97L1967.04 961.77L1967.3 962.56L1967.55 963.34L1967.78 964.12L1968.01 964.89L1968.22 965.65L1968.42 966.42L1968.61 967.19L1968.79 967.99L1968.97 968.79L1969.13 969.61L1969.29 970.44L1969.44 971.29L1969.58 972.14L1969.71 973.02L1969.84 973.9L1969.95 974.8L1970.07 975.72L1970.17 976.65L1970.27 977.59L1970.36 978.54L1970.44 979.51L1970.52 980.5L1970.59 981.5L1970.65 982.51L1970.71 983.53L1970.77 984.58L1970.81 985.63L1970.86 986.7L1970.89 987.79L1970.93 988.88L1970.95 990L1970.98 991.13L1971 992.27L1971.01 993.43L1971.02 994.6L1971.03 995.79L1971.03 996.99L1971.03 998.21L1971.03 999.44L1971.02 1000.69L1971.01 1001.95L1971 1003.23L1970.99 1004.52L1970.97 1005.83L1970.95 1007.15L1970.94 1008.47L1970.96 1009.75L1971 1011L1971.06 1012.22L1971.14 1013.4L1971.25 1014.56L1971.38 1015.69L1971.53 1016.8L1971.7 1017.87L1971.89 1018.93L1972.09 1019.95L1972.32 1020.96L1972.57 1021.94L1972.83 1022.9L1973.11 1023.85L1973.41 1024.77L1973.73 1025.68L1974.06 1026.56L1974.4 1027.44L1974.76 1028.3L1975.14 1029.14L1975.53 1029.97L1975.93 1030.79L1976.34 1031.6L1976.77 1032.41L1977.21 1033.2L1977.66 1033.98L1978.12 1034.76L1978.59 1035.53L1979.08 1036.3L1979.57 1037.07L1980.06 1037.83L1980.57 1038.59L1981.09 1039.36L1981.61 1040.12L1982.14 1040.88L1982.67 1041.65L1983.22 1042.42L1983.76 1043.2L1984.31 1043.98L1984.88 1044.77L1985.46 1045.56L1986.06 1046.37L1986.69 1047.18L1987.33 1047.99L1987.98 1048.82L1988.66 1049.65L1989.34 1050.49L1990.04 1051.35L1990.75 1052.21L1991.48 1053.08L1992.21 1053.96L1992.96 1054.85L1993.71 1055.75L1994.47 1056.67L1995.24 1057.6L1996.01 1058.53L1996.78 1059.49L1997.56 1060.45L1998.35 1061.43L1999.13 1062.42L1999.92 1063.43L2000.7 1064.45L2001.48 1065.48L2002.26 1066.53L2003.04 1067.6L2003.81 1068.68L2004.58 1069.78L2005.34 1070.9L2006.09 1072.03L2006.84 1073.18L2007.57 1074.35L2008.3 1075.54L2009.01 1076.75L2009.71 1077.97L2010.4 1079.22L2011.07 1080.49L2011.73 1081.77L2012.37 1083.08L2013 1084.41L2013.6 1085.73L2014.18 1087.02L2014.73 1088.27L2015.26 1089.5L2015.77 1090.7L2016.26 1091.86L2016.73 1093L2017.17 1094.12L2017.6 1095.2L2018.01 1096.27L2018.4 1097.3L2018.76 1098.32L2019.12 1099.31L2019.45 1100.29L2019.77 1101.24L2020.07 1102.17L2020.35 1103.09L2020.62 1103.99L2020.88 1104.87L2021.12 1105.74L2021.35 1106.59L2021.57 1107.43L2021.77 1108.26L2021.97 1109.08L2022.15 1109.88L2022.32 1110.68L2022.48 1111.47L2022.63 1112.26L2022.77 1113.03L2022.91 1113.81L2023.03 1114.57L2023.15 1115.34L2023.27 1116.1L2023.37 1116.86L2023.48 1117.62L2023.57 1118.39L2023.67 1119.15L2023.75 1119.92L2023.84 1120.69L2023.92 1121.46L2023.97 1121.98L2024.02 1122.51L2024.06 1123.03L2024.09 1123.55L2024.11 1124.08L2024.13 1124.61L2024.14 1125.14L2024.15 1125.67L2024.15 1126.2L2024.14 1126.74L2024.13 1127.27L2024.1 1127.81L2024.08 1128.35L2024.04 1128.89L2024 1129.43L2023.95 1129.98L2023.9 1130.52L2023.84 1131.07L2023.77 1131.62L2023.7 1132.17L2023.62 1132.72L2023.53 1133.28L2023.44 1133.83L2023.34 1134.39L2023.23 1134.95L2023.12 1135.51L2023 1136.07L2022.87 1136.64L2022.74 1137.2L2022.6 1137.77L2022.45 1138.34L2022.3 1138.91L2022.14 1139.48L2021.97 1140.06L2021.8 1140.63L2021.62 1141.21L2021.43 1141.79L2021.24 1142.37L2021.04 1142.95L2020.84 1143.53L1953.82 1217.37L1953.95 1217.41L1954.07 1217.45L1954.17 1217.49L1954.26 1217.53L1954.33 1217.57L1954.39 1217.61L1954.44 1217.65L1954.47 1217.69L1954.48 1217.73L1954.49 1217.77L1954.48 1217.8L1954.45 1217.84L1954.41 1217.88L1954.36 1217.91L1954.3 1217.95L1954.22 1217.99L1954.12 1218.02L1954.01 1218.06L1953.89 1218.09L1953.75 1218.12L1953.6 1218.16L1953.44 1218.19L1953.26 1218.23L1953.07 1218.26L1952.86 1218.29L1952.64 1218.32L1952.41 1218.36L1952.16 1218.39L1951.9 1218.42L1951.62 1218.45L1951.33 1218.48L1951.02 1218.51L1950.71 1218.54L1950.37 1218.57L1950.03 1218.6L1949.67 1218.63L1949.29 1218.66L1948.9 1218.68L1948.5 1218.71L1948.09 1218.74L1947.44 1218.77L1946.77 1218.8L1946.08 1218.81L1945.38 1218.81L1944.66 1218.8L1943.92 1218.78L1943.17 1218.75L1942.4 1218.72L1941.63 1218.67L1940.84 1218.62L1940.05 1218.56L1939.25 1218.49L1938.45 1218.42L1937.64 1218.34L1936.83 1218.26L1936.02 1218.17L1935.21 1218.08L1934.41 1217.98L1933.61 1217.88L1932.81 1217.78L1932.02 1217.68L1931.24 1217.57L1930.48 1217.47L1929.72 1217.36L1928.97 1217.26L1928.24 1217.15L1927.53 1217.04L1926.83 1216.94L1926.16 1216.84L1925.5 1216.74L1924.87 1216.65L1924.26 1216.55L1923.67 1216.47L1923.11 1216.38L1922.58 1216.3L1922.08 1216.23L1921.61 1216.16L1921.18 1216.11L1920.77 1216.05L1920.41 1216.01L1920.05 1215.97L1919.66 1215.95L1919.26 1215.94L1918.83 1215.94L1918.38 1215.96L1917.92 1215.98L1917.44 1216.02L1916.94 1216.06L1916.42 1216.12L1915.9 1216.18L1915.36 1216.25L1914.8 1216.33L1914.24 1216.41L1913.67 1216.5L1913.09 1216.6L1912.51 1216.71L1911.92 1216.82L1911.33 1216.93L1910.73 1217.05L1910.13 1217.17L1909.53 1217.29L1908.93 1217.42L1908.33 1217.55L1907.74 1217.68L1907.15 1217.81L1906.57 1217.94L1905.99 1218.07L1905.42 1218.21L1904.86 1218.34L1904.31 1218.47L1903.77 1218.59L1903.25 1218.72L1902.74 1218.84L1902.24 1218.96L1901.76 1219.07L1901.3 1219.18L1900.85 1219.28L1900.43 1219.38L1900.03 1219.47L1899.65 1219.56L1899.4 1219.61L1899.16 1219.66L1898.92 1219.71L1898.68 1219.76L1898.45 1219.8L1898.21 1219.84L1897.98 1219.87L1897.76 1219.91L1897.53 1219.94L1897.31 1219.97L1897.09 1219.99L1896.87 1220.02L1896.65 1220.04L1896.44 1220.06L1896.23 1220.07L1896.02 1220.08L1895.81 1220.09L1895.61 1220.1L1895.41 1220.1L1895.21 1220.1L1895.01 1220.1L1894.82 1220.1L1894.62 1220.09L1894.43 1220.08L1894.25 1220.07L1894.06 1220.06L1893.88 1220.04L1893.7 1220.02L1893.52 1219.99L1893.35 1219.97L1893.17 1219.94L1893 1219.91L1892.83 1219.87L1892.67 1219.84L1892.51 1219.8L1892.34 1219.76L1892.19 1219.71L1892.03 1219.66L1891.88 1219.61L1891.72 1219.56L1888.63 1215.95L1885.61 1212.42L1882.67 1208.97L1879.81 1205.61L1877.02 1202.34L1874.31 1199.15L1871.68 1196.04L1869.13 1193.01L1866.65 1190.07L1864.25 1187.21L1861.92 1184.44L1859.67 1181.75L1857.5 1179.14L1855.41 1176.62L1853.39 1174.18L1851.45 1171.83L1849.59 1169.56L1847.8 1167.37L1846.1 1165.27L1844.46 1163.25L1842.91 1161.32L1841.43 1159.47L1840.03 1157.7L1838.7 1156.01L1837.46 1154.41L1836.29 1152.9L1835.19 1151.47L1834.18 1150.12L1833.24 1148.85L1832.37 1147.67L1831.59 1146.58L1830.88 1145.56L1830.25 1144.63L1829.69 1143.79L1829.22 1143.03L1828.82 1142.35L1828.49 1141.75L1828.24 1141.24L1828.07 1140.82L1827.98 1140.48L1827.9 1140L1827.83 1139.47L1827.77 1138.9L1827.72 1138.28L1827.68 1137.61L1827.65 1136.9L1827.63 1136.15L1827.63 1135.35L1827.63 1134.52L1827.65 1133.65L1827.68 1132.75L1827.72 1131.81L1827.78 1130.84L1827.85 1129.84L1827.93 1128.81L1828.03 1127.75L1828.15 1126.67L1828.28 1125.56L1828.43 1124.43L1828.6 1123.27L1828.78 1122.1L1828.98 1120.91L1829.2 1119.71L1829.44 1118.49L1829.69 1117.25L1829.97 1116.01L1830.27 1114.76L1830.59 1113.49L1830.92 1112.22L1831.28 1110.95L1831.67 1109.67L1832.07 1108.39L1832.5 1107.11L1832.95 1105.83L1833.43 1104.56L1833.93 1103.29L1834.45 1102.03L1835 1100.77L1835.57 1099.52L1836.18 1098.29L1836.79 1097.06L1837.41 1095.84L1838.04 1094.63L1838.67 1093.43L1839.3 1092.23L1839.94 1091.04L1840.58 1089.85L1841.22 1088.67L1841.88 1087.5L1842.53 1086.33L1843.2 1085.17L1843.86 1084.01L1844.54 1082.86L1845.22 1081.71L1845.9 1080.57L1846.6 1079.43L1847.3 1078.3L1848 1077.17L1848.71 1076.05L1849.43 1074.92L1850.16 1073.81L1850.89 1072.69L1851.63 1071.58L1852.38 1070.47L1853.14 1069.37L1853.9 1068.26L1854.68 1067.16L1855.46 1066.07L1856.25 1064.97L1857.05 1063.88L1857.85 1062.78L1858.67 1061.69L1859.5 1060.6L1860.33 1059.51L1861.18 1058.43L1862.03 1057.34L1862.9 1056.25L1863.77 1055.17L1864.66 1054.08L1865.56 1053L1866.44 1051.89L1867.3 1050.76L1868.13 1049.59L1868.93 1048.39L1869.7 1047.17L1870.45 1045.92L1871.16 1044.65L1871.85 1043.36L1872.51 1042.05L1873.14 1040.72L1873.75 1039.38L1874.33 1038.02L1874.88 1036.65L1875.4 1035.28L1875.9 1033.89L1876.37 1032.5L1876.81 1031.1L1877.23 1029.71L1877.63 1028.31L1877.99 1026.92L1878.34 1025.53L1878.65 1024.14L1878.95 1022.76L1879.21 1021.4L1879.45 1020.04L1879.67 1018.7L1879.87 1017.38L1880.03 1016.07L1880.18 1014.78L1880.3 1013.51L1880.4 1012.27L1880.47 1011.05L1880.52 1009.86L1880.55 1008.7L1880.56 1007.57L1880.54 1006.47L1880.5 1005.41L1880.44 1004.38L1880.35 1003.4L1880.25 1002.45L1880.13 1001.51L1880.01 1000.52L1879.89 999.48L1879.78 998.41L1879.67 997.31L1879.56 996.16L1879.45 994.98L1879.36 993.77L1879.27 992.53L1879.19 991.27L1879.12 989.97L1879.07 988.65L1879.03 987.31L1879 985.94L1878.98 984.56L1878.99 983.16L1879.01 981.74L1879.05 980.31L1879.11 978.87L1879.2 977.41L1879.3 975.95L1879.44 974.48L1879.59 973.01L1879.78 971.54L1879.99 970.06L1880.23 968.58L1880.5 967.11L1880.76 965.85L1880.92 964.71L1881.23 962.93L1881.62 961.17L1882.07 959.44L1882.58 957.74L1883.16 956.06L1883.79 954.42L1884.49 952.81L1885.24 951.24L1886.05 949.7L1886.92 948.19L1887.84 946.72L1888.81 945.3L1889.84 943.91L1890.91 942.57L1892.03 941.27L1893.2 940.02L1894.41 938.81L1895.67 937.65L1896.97 936.54L1898.31 935.48L1899.69 934.48L1901.11 933.53L1902.57 932.63L1904.06 931.8L1905.59 931.02L1907.15 930.3L1908.74 929.64L1910.35 929.05L1912 928.52L1913.68 928.05L1915.38 927.66L1917.1 927.33L1918.85 927.07L1920.62 926.89L1922.41 926.77L1924.22 926.74L1926.02 926.77L1927.81 926.89Z" id="elsADArxU"></path><path d="M1942.67 1020.32L1943.47 1020.36L1944.21 1020.42L1944.88 1020.5L1945.48 1020.6L1946.01 1020.72L1946.48 1020.85L1946.87 1021.01L1947.19 1021.19L1947.45 1021.38L1947.63 1021.6L1947.75 1021.84L1947.87 1022.21L1947.99 1022.58L1948.11 1022.96L1948.23 1023.35L1948.34 1023.74L1948.46 1024.14L1948.57 1024.54L1948.69 1024.95L1948.81 1025.37L1948.92 1025.79L1949.04 1026.22L1949.16 1026.66L1949.28 1027.11L1949.4 1027.56L1949.52 1028.02L1949.65 1028.49L1949.77 1028.97L1949.9 1029.46L1950.04 1029.96L1950.18 1030.47L1950.32 1030.99L1950.46 1031.52L1950.61 1032.06L1950.76 1032.62L1950.92 1033.18L1951.08 1033.76L1951.25 1034.34L1951.42 1034.94L1951.6 1035.55L1951.79 1036.18L1951.98 1036.82L1952.18 1037.47L1952.39 1038.14L1952.6 1038.82L1952.82 1039.51L1953.05 1040.22L1953.28 1040.94L1953.53 1041.68L1953.78 1042.44L1954.04 1043.21L1954.31 1043.98L1954.58 1044.76L1954.86 1045.52L1955.14 1046.29L1955.42 1047.06L1955.71 1047.83L1956.01 1048.6L1956.31 1049.37L1956.62 1050.15L1956.93 1050.93L1957.25 1051.72L1957.58 1052.52L1957.92 1053.33L1958.27 1054.15L1958.63 1054.97L1958.99 1055.82L1959.37 1056.67L1959.76 1057.54L1960.15 1058.43L1960.56 1059.33L1960.98 1060.25L1961.42 1061.2L1961.86 1062.16L1962.32 1063.14L1962.79 1064.15L1963.28 1065.18L1963.78 1066.24L1964.3 1067.33L1964.83 1068.44L1965.37 1069.58L1965.94 1070.76L1966.52 1071.96L1967.11 1073.2L1967.73 1074.47L1968.36 1075.78L1969.01 1077.12L1969.68 1078.5L1970.36 1079.92L1971.07 1081.38L1971.8 1082.88L1972.29 1083.89L1972.77 1084.9L1973.24 1085.91L1973.7 1086.93L1974.16 1087.94L1974.6 1088.95L1975.05 1089.96L1975.48 1090.97L1975.9 1091.97L1976.32 1092.98L1976.73 1093.99L1977.13 1095L1977.52 1096L1977.9 1097.01L1978.28 1098.01L1978.65 1099.02L1979.01 1100.02L1979.36 1101.03L1979.71 1102.03L1980.04 1103.03L1980.37 1104.03L1980.69 1105.03L1981.01 1106.03L1981.31 1107.03L1981.61 1108.03L1981.9 1109.03L1982.18 1110.03L1982.45 1111.02L1982.72 1112.02L1982.98 1113.02L1983.23 1114.01L1983.47 1115.01L1983.7 1116L1983.93 1116.99L1984.15 1117.99L1984.36 1118.98L1984.56 1119.97L1984.75 1120.96L1984.94 1121.95L1985.12 1122.94L1984.64 1122.96L1984.18 1122.99L1983.74 1123.03L1983.3 1123.08L1982.88 1123.15L1982.47 1123.24L1982.08 1123.33L1981.7 1123.45L1981.32 1123.57L1980.97 1123.71L1980.62 1123.87L1980.29 1124.03L1979.97 1124.22L1979.66 1124.41L1979.37 1124.62L1979.08 1124.85L1978.81 1125.08L1978.56 1125.34L1978.31 1125.6L1978.08 1125.88L1977.86 1126.17L1977.66 1126.48L1977.46 1126.8L1977.28 1127.14L1977.11 1127.49L1976.96 1127.85L1976.81 1128.23L1976.68 1128.62L1976.56 1129.03L1976.46 1129.45L1976.37 1129.88L1976.29 1130.33L1976.22 1130.79L1976.16 1131.27L1976.12 1131.76L1976.09 1132.26L1976.08 1132.78L1976.07 1133.31L1976.08 1133.86L1976.1 1134.42L1976.12 1135L1976.12 1135.63L1976.1 1136.29L1976.06 1136.99L1976.01 1137.73L1975.93 1138.5L1975.84 1139.32L1975.73 1140.17L1975.6 1141.06L1975.46 1141.99L1975.29 1142.95L1975.11 1143.96L1974.91 1145L1974.69 1146.08L1974.45 1147.2L1974.19 1148.35L1973.92 1149.55L1973.63 1150.78L1973.31 1152.05L1972.98 1153.36L1972.64 1154.7L1972.27 1156.09L1971.89 1157.51L1971.48 1158.97L1971.06 1160.47L1970.62 1162L1970.16 1163.58L1969.69 1165.19L1969.19 1166.84L1968.68 1168.53L1968.15 1170.26L1967.6 1172.02L1967.03 1173.82L1966.45 1175.66L1965.84 1177.54L1965.22 1179.46L1964.58 1181.41L1963.92 1183.4L1963.24 1185.43L1962.54 1187.5L1962.21 1187.75L1961.87 1188L1961.53 1188.25L1961.18 1188.5L1960.84 1188.74L1960.49 1188.99L1960.15 1189.24L1959.8 1189.48L1959.45 1189.73L1959.09 1189.97L1958.74 1190.21L1958.38 1190.46L1958.03 1190.7L1957.67 1190.94L1957.31 1191.18L1956.94 1191.42L1956.58 1191.66L1956.21 1191.9L1955.85 1192.14L1955.48 1192.38L1955.11 1192.61L1954.74 1192.85L1954.36 1193.09L1953.99 1193.32L1953.61 1193.56L1953.23 1193.79L1952.85 1194.03L1952.47 1194.26L1952.08 1194.49L1951.7 1194.72L1951.31 1194.95L1950.92 1195.18L1950.53 1195.41L1950.14 1195.64L1949.74 1195.87L1949.35 1196.1L1948.95 1196.33L1948.55 1196.55L1948.15 1196.78L1947.75 1197.01L1947.14 1197.34L1946.51 1197.68L1945.87 1198.01L1945.22 1198.34L1944.55 1198.66L1943.87 1198.98L1943.17 1199.3L1942.46 1199.61L1941.74 1199.91L1941 1200.21L1940.25 1200.51L1939.49 1200.79L1938.71 1201.07L1937.92 1201.35L1937.11 1201.61L1936.3 1201.86L1935.47 1202.11L1934.63 1202.35L1933.77 1202.58L1932.9 1202.79L1932.02 1203L1931.13 1203.2L1930.22 1203.38L1929.31 1203.56L1928.38 1203.72L1927.43 1203.87L1926.48 1204L1925.52 1204.12L1924.54 1204.23L1923.55 1204.32L1922.55 1204.4L1921.54 1204.47L1920.51 1204.52L1919.48 1204.55L1918.43 1204.56L1917.37 1204.56L1916.3 1204.54L1915.23 1204.51L1914.14 1204.45L1913.03 1204.38L1912.3 1204.32L1911.57 1204.25L1910.85 1204.18L1910.13 1204.09L1909.41 1203.99L1908.7 1203.89L1908 1203.77L1907.3 1203.65L1906.61 1203.52L1905.92 1203.38L1905.24 1203.22L1904.56 1203.06L1903.89 1202.89L1903.23 1202.71L1902.57 1202.53L1901.91 1202.33L1901.26 1202.12L1900.62 1201.91L1899.98 1201.68L1899.34 1201.45L1898.71 1201.2L1898.09 1200.95L1897.47 1200.69L1896.86 1200.42L1896.25 1200.14L1895.65 1199.85L1895.05 1199.55L1894.46 1199.24L1893.87 1198.92L1893.29 1198.59L1892.71 1198.26L1892.14 1197.91L1891.58 1197.56L1891.02 1197.2L1890.46 1196.82L1889.91 1196.44L1889.37 1196.05L1888.83 1195.65L1888.29 1195.24L1887.77 1194.82L1886.9 1194.26L1886.06 1193.72L1885.25 1193.19L1884.46 1192.67L1883.71 1192.17L1882.99 1191.68L1882.29 1191.21L1881.62 1190.75L1880.99 1190.31L1880.38 1189.88L1879.79 1189.46L1879.24 1189.06L1878.72 1188.68L1878.22 1188.31L1877.76 1187.95L1877.32 1187.61L1876.91 1187.28L1876.53 1186.97L1876.18 1186.67L1875.86 1186.38L1875.56 1186.12L1875.3 1185.86L1875.06 1185.62L1874.86 1185.39L1874.68 1185.18L1874.53 1184.99L1874.41 1184.8L1874.31 1184.64L1874.25 1184.48L1874.21 1184.34L1874.21 1184.22L1874.23 1184.11L1874.28 1184.01L1874.36 1183.93L1874.47 1183.87L1874.6 1183.82L1874.77 1183.78L1874.97 1183.76L1875.19 1183.75L1875.44 1183.75L1875.85 1183.77L1876.28 1183.78L1876.74 1183.78L1877.21 1183.77L1877.7 1183.76L1878.2 1183.73L1878.72 1183.69L1879.24 1183.64L1879.77 1183.57L1880.32 1183.5L1880.86 1183.41L1881.41 1183.3L1881.96 1183.18L1882.51 1183.05L1883.05 1182.89L1883.59 1182.72L1884.12 1182.54L1884.65 1182.33L1885.16 1182.1L1885.66 1181.86L1886.15 1181.59L1886.62 1181.3L1887.07 1180.99L1887.5 1180.66L1887.91 1180.3L1888.29 1179.92L1888.65 1179.52L1888.98 1179.09L1889.28 1178.63L1889.55 1178.14L1889.78 1177.63L1889.98 1177.09L1890.14 1176.52L1890.26 1175.92L1890.34 1175.29L1890.38 1174.63L1890.37 1173.94L1890.31 1173.21L1890.2 1172.46L1890.04 1171.66L1889.9 1171.12L1889.73 1170.56L1889.52 1169.99L1889.28 1169.4L1889 1168.81L1888.69 1168.2L1888.34 1167.58L1887.96 1166.94L1887.54 1166.29L1887.09 1165.63L1886.61 1164.96L1886.09 1164.28L1885.54 1163.58L1884.95 1162.87L1884.33 1162.14L1883.67 1161.41L1882.98 1160.66L1882.26 1159.9L1881.5 1159.12L1880.7 1158.34L1879.87 1157.54L1879.01 1156.72L1878.11 1155.9L1877.18 1155.06L1876.22 1154.21L1875.22 1153.35L1874.18 1152.47L1873.11 1151.58L1872.01 1150.68L1870.87 1149.77L1869.7 1148.84L1868.49 1147.9L1867.25 1146.95L1865.97 1145.99L1864.66 1145.01L1863.32 1144.02L1861.94 1143.02L1860.53 1142L1859.08 1140.97L1857.6 1139.93L1857.62 1139.06L1857.65 1138.2L1857.68 1137.33L1857.71 1136.47L1857.75 1135.61L1857.79 1134.75L1857.83 1133.89L1857.88 1133.04L1857.93 1132.19L1857.99 1131.34L1858.05 1130.49L1858.11 1129.65L1858.18 1128.81L1858.25 1127.97L1858.33 1127.13L1858.41 1126.3L1858.49 1125.46L1858.57 1124.63L1858.66 1123.81L1858.76 1122.98L1858.86 1122.16L1858.96 1121.34L1859.06 1120.52L1859.17 1119.7L1859.28 1118.89L1859.4 1118.07L1859.52 1117.26L1859.64 1116.46L1859.77 1115.65L1859.9 1114.85L1860.04 1114.05L1860.18 1113.25L1860.32 1112.45L1860.46 1111.66L1860.61 1110.87L1860.77 1110.08L1860.93 1109.29L1861.09 1108.51L1861.25 1107.73L1861.42 1106.95L1861.68 1105.8L1861.93 1104.69L1862.19 1103.61L1862.45 1102.57L1862.71 1101.56L1862.98 1100.58L1863.25 1099.62L1863.52 1098.69L1863.79 1097.79L1864.07 1096.9L1864.36 1096.04L1864.65 1095.19L1864.94 1094.35L1865.24 1093.53L1865.55 1092.72L1865.87 1091.92L1866.19 1091.12L1866.52 1090.33L1866.86 1089.54L1867.21 1088.75L1867.57 1087.96L1867.94 1087.17L1868.32 1086.37L1868.71 1085.57L1869.11 1084.75L1869.53 1083.92L1869.95 1083.08L1870.39 1082.22L1870.84 1081.35L1871.31 1080.45L1871.79 1079.53L1872.29 1078.59L1872.8 1077.62L1873.32 1076.63L1873.86 1075.6L1874.42 1074.54L1875 1073.45L1875.59 1072.32L1876.2 1071.15L1876.83 1069.94L1877.26 1069.12L1877.67 1068.28L1878.08 1067.43L1878.49 1066.57L1878.89 1065.7L1879.28 1064.81L1879.67 1063.91L1880.05 1063.01L1880.43 1062.09L1880.8 1061.15L1881.16 1060.21L1881.52 1059.26L1881.87 1058.29L1882.21 1057.31L1882.55 1056.32L1882.89 1055.32L1883.22 1054.3L1883.54 1053.28L1883.85 1052.24L1884.16 1051.19L1884.47 1050.13L1884.77 1049.06L1885.06 1047.97L1885.34 1046.87L1885.62 1045.77L1885.9 1044.64L1886.17 1043.51L1886.43 1042.37L1886.69 1041.21L1886.94 1040.05L1887.18 1038.87L1887.42 1037.68L1887.65 1036.47L1887.88 1035.26L1888.1 1034.03L1888.31 1032.79L1888.52 1031.54L1888.73 1030.28L1888.92 1029.01L1889.11 1027.72L1891.93 1027.19L1894.68 1026.68L1897.35 1026.19L1899.96 1025.72L1902.5 1025.27L1904.97 1024.84L1907.37 1024.42L1909.7 1024.03L1911.96 1023.66L1914.16 1023.3L1916.28 1022.97L1918.33 1022.66L1920.32 1022.36L1922.23 1022.09L1924.08 1021.83L1925.86 1021.6L1927.57 1021.38L1929.21 1021.18L1930.77 1021.01L1932.28 1020.85L1933.71 1020.71L1935.07 1020.6L1936.36 1020.5L1937.59 1020.42L1938.74 1020.36L1939.83 1020.32L1940.84 1020.3L1941.79 1020.3L1942.67 1020.32Z" id="fHpQz9R9j"></path><path d="M1907.07 992.38C1907.07 1001.66 1902.17 1009.18 1896.14 1009.18C1890.11 1009.18 1885.21 1001.66 1885.21 992.38C1885.21 983.11 1890.11 975.58 1896.14 975.58C1902.17 975.58 1907.07 983.11 1907.07 992.38Z" id="atfDEhVAu"></path><path d="M1948.04 991.77C1948.04 1002.4 1941.32 1011.03 1933.05 1011.03C1924.77 1011.03 1918.05 1002.4 1918.05 991.77C1918.05 981.14 1924.77 972.51 1933.05 972.51C1941.32 972.51 1948.04 981.14 1948.04 991.77Z" id="f2YmopEqob"></path><path d="M1902.29 994.8C1902.29 1000.38 1899.66 1004.91 1896.41 1004.91C1893.17 1004.91 1890.54 1000.38 1890.54 994.8C1890.54 989.22 1893.17 984.69 1896.41 984.69C1899.66 984.69 1902.29 989.22 1902.29 994.8Z" id="cnbDVhBu6"></path><path d="M1938.35 995.44C1938.35 1001.47 1935.41 1006.37 1931.79 1006.37C1928.17 1006.37 1925.23 1001.47 1925.23 995.44C1925.23 989.41 1928.17 984.51 1931.79 984.51C1935.41 984.51 1938.35 989.41 1938.35 995.44Z" id="aQFIeE4vh"></path><path d="M1925.67 1035.32C1930.04 1032.23 1931.49 1031.13 1934.68 1029.95C1937.87 1028.77 1943.06 1026.6 1946.97 1023.05C1950.89 1019.5 1951.53 1009.85 1945.06 1007.66C1938.6 1005.47 1922.23 997.73 1919.69 996.37C1917.14 995 1909.61 992.72 1904.97 997C1900.32 1001.28 1886.7 1009.89 1884.97 1011.71C1883.24 1013.53 1881.61 1020.75 1886.8 1024.02C1891.99 1027.3 1897.18 1030.85 1900.92 1034.68C1903.41 1037.23 1907.45 1038.59 1913.03 1038.78C1918.54 1038.54 1922.75 1037.39 1925.67 1035.32Z" id="d1w4JCXrRZ"></path><path d="M1892.15 1214.18C1892.97 1211.17 1892.97 1208.71 1891.33 1203.25C1889.7 1197.79 1883.96 1189.86 1876.04 1180.3C1868.11 1170.74 1861.29 1157.63 1859.92 1152.99C1858.55 1148.34 1851.72 1136.05 1839.43 1135.23C1827.14 1134.41 1823.04 1150.53 1817.58 1153.8C1812.11 1157.08 1799 1156.26 1796.82 1166.1C1794.63 1175.93 1799.13 1185.87 1798.31 1189.96C1797.49 1194.06 1793.94 1198.16 1795.31 1206.9C1796.68 1215.64 1810.02 1216.96 1825.9 1217.81C1841.77 1218.66 1843.17 1224.86 1859.35 1228.99C1870.13 1231.75 1879.51 1229.27 1887.49 1221.54C1890.05 1218.64 1891.61 1216.18 1892.15 1214.18Z" id="a5935vAgC"></path><path d="M1956.95 1222.56C1955.58 1220.1 1954.49 1216.82 1954.22 1210.81C1953.94 1204.8 1956.13 1194.7 1959.13 1188.14C1962.14 1181.58 1961.05 1163.83 1964.05 1151.26C1966.05 1142.88 1969.79 1137.33 1975.25 1134.6C1975.96 1143.16 1977.87 1149.08 1980.99 1152.35C1985.66 1157.27 1990.82 1156.45 2000.38 1152.9C2006.76 1150.53 2011.04 1146.98 2013.22 1142.25C2023.6 1143.34 2029.21 1146.89 2030.05 1152.9C2031.31 1161.92 2033.16 1168.74 2038.35 1174.75C2043.54 1180.76 2045.46 1183.5 2044.91 1189.78C2044.36 1196.06 2041.36 1197.15 2025.24 1204.57C2009.12 1211.98 2008.85 1218.19 2000.38 1223.93C1991.91 1229.66 1991.09 1230.21 1980.99 1232.67C1974.25 1234.31 1967.87 1232.58 1961.86 1227.48C1959.5 1225.84 1957.86 1224.2 1956.95 1222.56Z" id="c3ob702NZ"></path><path d="M1978.09 1126.29C1975.39 1130.43 1974.72 1135.12 1976.07 1140.34C1980.12 1126.84 1980.79 1122.15 1978.09 1126.29Z" id="bbvOVGXTY"></path></defs><g><g><g><use xlink:href="#ansf1lra" opacity="1" fill="#ffffff" fill-opacity="1"></use></g><g><use xlink:href="#elsADArxU" opacity="1" fill="#000000" fill-opacity="1"></use></g><g><use xlink:href="#fHpQz9R9j" opacity="1" fill="{color1}" fill-opacity="1"></use></g><g><use xlink:href="#atfDEhVAu" opacity="1" fill="#ffffff" fill-opacity="1"></use></g><g><use xlink:href="#f2YmopEqob" opacity="1" fill="#ffffff" fill-opacity="1"></use></g><g><use xlink:href="#cnbDVhBu6" opacity="1" fill="#000000" fill-opacity="1"></use></g><g><use xlink:href="#aQFIeE4vh" opacity="1" fill="#000000" fill-opacity="1"></use></g><g><use xlink:href="#d1w4JCXrRZ" opacity="1" fill="#ffb60f" fill-opacity="1"></use></g><g><use xlink:href="#a5935vAgC" opacity="1" fill="#ffb60f" fill-opacity="1"></use></g><g><use xlink:href="#c3ob702NZ" opacity="1" fill="#ffb60f" fill-opacity="1"></use></g><g><use xlink:href="#bbvOVGXTY" opacity="1" fill="#000000" fill-opacity="1"></use></g></g></g></svg>
